<svg width="107" height="108" viewBox="0 0 107 108" fill="none" xmlns="http://www.w3.org/2000/svg">
<rect x="22" y="58" width="5" height="34" rx="2.5" fill="white"/>
<rect x="7" width="5" height="100" rx="2.5" fill="white"/>
<rect x="7" y="3.53564" width="5" height="11.779" rx="2.5" transform="rotate(-45 7 3.53564)" fill="white"/>
<rect x="8.3291" width="5" height="11.779" rx="2.5" transform="rotate(45 8.3291 0)" fill="white"/>
<rect x="35" y="58" width="5" height="34" rx="2.5" fill="white"/>
<rect x="35" y="33" width="5" height="59" rx="2.5" fill="white"/>
<rect x="48" y="46" width="5" height="46" rx="2.5" fill="white"/>
<rect x="61" y="15" width="5" height="77" rx="2.5" fill="white"/>
<rect x="74" y="63" width="5" height="29" rx="2.5" fill="white"/>
<rect x="87" y="38" width="5" height="54" rx="2.5" fill="white"/>
<rect x="107" y="95.9998" width="5" height="100" rx="2.5" transform="rotate(90 107 95.9998)" fill="white"/>
<rect x="103.464" y="95.9998" width="5" height="11.779" rx="2.5" transform="rotate(45 103.464 95.9998)" fill="white"/>
<rect x="107" y="97.3289" width="5" height="11.779" rx="2.5" transform="rotate(135 107 97.3289)" fill="white"/>
</svg>
